<svg xmlns="http://www.w3.org/2000/svg" viewBox="0 0 48 48" fill="none">
  <defs>
    <linearGradient id="iconMain" x1="0%" y1="0%" x2="100%" y2="100%">
      <stop offset="0%" style="stop-color:#A855F7"/>
      <stop offset="50%" style="stop-color:#8B5CF6"/>
      <stop offset="100%" style="stop-color:#7C3AED"/>
    </linearGradient>
    <linearGradient id="iconBee" x1="0%" y1="100%" x2="100%" y2="0%">
      <stop offset="0%" style="stop-color:#F59E0B"/>
      <stop offset="100%" style="stop-color:#FBBF24"/>
    </linearGradient>
    <linearGradient id="iconWing" x1="0%" y1="0%" x2="100%" y2="100%">
      <stop offset="0%" style="stop-color:#C4B5FD" stop-opacity="0.8"/>
      <stop offset="100%" style="stop-color:#A78BFA" stop-opacity="0.6"/>
    </linearGradient>
  </defs>
  
  <rect width="48" height="48" rx="12" fill="url(#iconMain)"/>
  
  <ellipse cx="15" cy="18" rx="6" ry="8" fill="url(#iconWing)" transform="rotate(-20 15 18)"/>
  <ellipse cx="33" cy="18" rx="6" ry="8" fill="url(#iconWing)" transform="rotate(20 33 18)"/>
  
  <ellipse cx="24" cy="28" rx="11" ry="13" fill="url(#iconBee)"/>
  <rect x="21" y="16" width="6" height="10" rx="3" fill="url(#iconBee)"/>
  
  <line x1="19" y1="24" x2="29" y2="24" stroke="#1F1F1F" stroke-width="1.5" stroke-linecap="round"/>
  <line x1="18" y1="29" x2="30" y2="29" stroke="#1F1F1F" stroke-width="1.5" stroke-linecap="round"/>
  <line x1="19" y1="34" x2="29" y2="34" stroke="#1F1F1F" stroke-width="1.5" stroke-linecap="round"/>
  
  <circle cx="21" cy="19" r="2" fill="#1F1F1F"/>
  <circle cx="27" cy="19" r="2" fill="#1F1F1F"/>
  <circle cx="21.5" cy="18.5" r="0.8" fill="white"/>
  <circle cx="27.5" cy="18.5" r="0.8" fill="white"/>
  
  <line x1="18" y1="12" x2="16" y2="8" stroke="white" stroke-width="1.5" stroke-linecap="round"/>
  <circle cx="15.5" cy="7" r="1.5" fill="white"/>
  <line x1="30" y1="12" x2="32" y2="8" stroke="white" stroke-width="1.5" stroke-linecap="round"/>
  <circle cx="32.5" cy="7" r="1.5" fill="white"/>
</svg>