<svg version="1.1" id="Layer_1" xmlns="http://www.w3.org/2000/svg" xmlns:xlink="http://www.w3.org/1999/xlink" x="0px" y="0px"
	 width="100%" viewBox="0 0 1024 747" enable-background="new 0 0 1024 747" xml:space="preserve">
<path fill="#000000" opacity="1.000000" stroke="none" 
	d="
M642.000000,748.000000 
	C428.000000,748.000000 214.500000,748.000000 1.000000,748.000000 
	C1.000000,499.000000 1.000000,250.000000 1.000000,1.000000 
	C342.333344,1.000000 683.666687,1.000000 1025.000000,1.000000 
	C1025.000000,250.000000 1025.000000,499.000000 1025.000000,748.000000 
	C897.500000,748.000000 770.000000,748.000000 642.000000,748.000000 
M491.552551,379.947906 
	C491.729370,379.632263 491.906219,379.316650 492.002258,378.997925 
	C492.002258,378.997925 491.999207,379.078735 492.543732,378.936066 
	C492.724579,378.621674 492.905426,378.307251 492.992584,377.991180 
	C492.992584,377.991180 492.990723,378.084930 493.538025,377.940887 
	C493.741211,377.633820 493.944427,377.326782 494.897614,376.992676 
	C502.039215,372.262146 506.967590,372.724854 512.359619,379.039490 
	C513.731567,380.646179 514.253113,382.979126 515.029785,385.913544 
	C515.013794,400.641022 514.973389,415.368561 515.023499,430.095795 
	C515.027954,431.418823 515.617798,432.739868 516.000000,434.001221 
	C516.000000,434.001221 515.935913,434.064240 516.201416,434.734589 
	C518.119263,434.882629 520.037170,435.030640 522.886353,435.022827 
	C529.594971,434.955994 536.303650,434.889191 543.712036,434.975922 
	C544.492554,434.678192 545.273071,434.380432 546.052429,434.053436 
	C546.052429,434.053436 546.081543,434.049957 546.872192,433.660156 
	C546.926392,414.509766 546.994568,395.359344 546.987183,376.208984 
	C546.986877,375.380798 546.289917,374.552856 545.950500,373.420044 
	C545.950500,373.420044 545.801208,373.152283 545.910889,372.572906 
	C545.873413,372.379974 545.835938,372.187042 545.960938,371.221039 
	C543.602051,359.535461 536.569336,352.943207 524.766968,350.863770 
	C509.361542,348.149475 496.136749,351.264771 485.696167,364.214600 
	C484.694092,362.092621 483.766571,360.128571 482.996979,357.324310 
	C482.897797,352.595337 480.862152,350.173767 475.785431,350.929230 
	C473.842010,351.218414 471.811768,350.863190 469.833252,350.990448 
	C465.860260,351.245972 461.895660,351.631378 457.990356,351.977509 
	C457.990356,351.977509 457.979858,351.914001 457.093719,351.994202 
	C456.717773,353.089325 456.016418,354.183594 456.013580,355.279694 
	C455.947968,380.538330 455.947876,405.797211 455.992279,431.055908 
	C455.994110,432.083435 456.549469,433.109955 456.899323,434.134216 
	C456.899323,434.134216 456.911163,434.082611 457.131134,434.726746 
	C457.784424,434.766632 458.437714,434.806549 460.009735,434.968597 
	C469.237396,434.968597 478.465057,434.968597 487.816711,434.968597 
	C487.816711,418.371521 487.816711,402.172119 487.973572,385.578003 
	C487.973572,385.578003 488.029144,385.156952 488.598053,384.941681 
	C488.693054,384.579529 488.788055,384.217407 489.013214,383.542297 
	C489.013214,383.542297 489.032776,383.203918 489.640686,382.911377 
	C489.787109,382.270966 489.933533,381.630554 489.996429,380.997650 
	C489.996429,380.997650 490.003754,381.081177 490.553223,380.952911 
	C490.728699,380.636749 490.904205,380.320557 491.004425,380.004608 
	C491.004425,380.004608 491.004791,380.079865 491.552551,379.947906 
M326.002716,337.009064 
	C326.002716,337.009064 325.919861,336.993713 326.062531,337.542725 
	C326.373566,337.740753 326.684601,337.938782 327.030151,338.565552 
	C327.030151,338.565552 327.176025,338.970184 327.021393,339.637878 
	C327.350281,340.150970 327.679169,340.664032 327.986725,342.019531 
	C328.317719,348.304382 328.648743,354.589264 328.200714,361.306671 
	C328.127991,379.936890 328.044342,398.567139 328.027283,417.197388 
	C328.026672,417.862030 328.685059,418.527252 329.015106,419.930389 
	C331.094940,425.946442 334.018585,431.199951 341.166565,433.739868 
	C342.144348,434.187317 343.121155,435.019379 344.100006,435.021729 
	C352.453644,435.042023 360.807678,434.911804 369.991974,434.945404 
	C372.465179,434.945404 374.938385,434.945404 376.419189,434.945404 
	C373.412903,429.603729 369.067871,425.024689 368.319489,419.918518 
	C366.607788,408.239777 366.422272,396.310516 366.056671,384.469391 
	C365.734161,374.023987 366.007782,363.560211 366.787872,352.730591 
	C368.366577,352.491730 369.943542,352.060577 371.524231,352.046478 
	C379.483978,351.975616 387.444763,352.039673 395.404968,352.003967 
	C400.502136,351.981079 401.940582,350.477356 401.951385,345.302124 
	C401.967651,337.507446 402.113556,329.707550 401.837585,321.922882 
	C401.787994,320.524292 399.968475,319.188416 398.945953,317.448730 
	C398.826660,317.188995 398.624207,317.065308 397.844757,316.289703 
	C391.536255,316.171387 385.227905,315.960419 378.919220,315.950653 
	C350.613190,315.906921 322.307068,315.918396 294.000977,315.914551 
	C286.339935,315.913513 284.917664,317.366699 284.922302,325.127258 
	C284.926666,332.453552 284.905670,339.779938 284.951202,347.105957 
	C284.957367,348.099457 285.285553,349.091003 285.464630,350.083435 
	C285.883392,350.134094 286.302124,350.184723 286.720886,350.235382 
	C287.140991,348.648621 287.597046,347.070374 287.975159,345.473663 
	C289.919098,337.265381 293.623749,330.817383 302.712524,328.656189 
	C311.554779,326.553589 318.600983,329.561096 325.003021,335.536530 
	C325.003021,335.536530 325.134491,335.831024 325.039276,336.433563 
	C325.355225,336.653015 325.671173,336.872437 326.002716,337.009064 
M639.002441,411.998688 
	C639.002441,411.998688 639.080872,412.000275 638.927246,411.464813 
	C638.616821,411.283813 638.306396,411.102814 638.012756,411.000519 
	C638.012756,411.000519 638.091431,410.983459 638.019714,410.125702 
	C637.679260,408.231140 637.064148,406.339355 637.044983,404.441559 
	C636.952942,395.303009 637.161865,386.159424 636.938721,377.025574 
	C636.879944,374.618195 635.662292,372.239136 634.981689,369.100922 
	C632.129822,359.865601 619.933472,350.401337 608.664612,350.200134 
	C598.344849,350.015900 587.865967,350.544891 577.695557,352.212921 
	C564.311951,354.407959 562.985718,356.779297 563.021973,370.078430 
	C563.023315,370.578064 563.010071,371.078064 563.025696,371.577240 
	C563.157898,375.792999 564.759094,377.026489 568.653503,375.669891 
	C570.325500,375.087433 571.763916,373.724518 573.453003,373.320496 
	C580.020264,371.749268 586.595276,369.638641 593.262634,369.210297 
	C600.683105,368.733582 605.174805,373.934479 604.593689,380.968658 
	C600.749390,381.629730 596.676514,381.940308 592.843628,383.067169 
	C583.763306,385.736908 574.245422,387.716736 565.927551,391.974274 
	C556.098938,397.005127 555.145996,407.136047 556.047363,417.203522 
	C556.856201,426.237152 562.904114,431.503387 570.383667,434.620789 
	C584.108337,440.341064 600.375427,435.748993 609.029846,424.964203 
	C610.993774,427.443573 612.522949,431.041626 615.200623,432.438934 
	C622.939880,436.477783 631.420471,437.182495 639.907959,434.890320 
	C641.429626,434.479401 643.687683,432.562103 643.664062,431.379089 
	C643.548401,425.588898 642.775513,419.811798 641.951416,413.445862 
	C641.563416,413.342041 641.175354,413.238220 640.556152,413.004181 
	C640.556152,413.004181 640.293579,413.042389 640.019775,412.497070 
	C639.681274,412.304810 639.342834,412.112549 639.002441,411.998688 
M684.858215,433.659943 
	C684.853271,418.432770 684.848267,403.205597 685.173523,387.342590 
	C686.832092,385.237152 688.158203,382.704651 690.211426,381.106079 
	C696.462646,376.239258 703.361694,377.104462 710.046936,380.077545 
	C713.664917,381.686554 715.631775,381.233551 716.375549,377.172455 
	C717.544861,370.788116 719.070862,364.451019 719.840454,358.021454 
	C720.106201,355.801361 719.248596,352.025330 717.734863,351.253601 
	C710.173401,347.398651 696.250549,350.197479 690.261108,356.290344 
	C687.082214,359.524078 684.197083,363.046570 681.108887,366.517944 
	C680.694153,363.571716 680.681030,360.547119 679.779236,357.815826 
	C678.658447,354.420990 677.228699,351.281006 672.226440,351.873627 
	C666.971069,352.496246 661.580688,352.201935 656.262207,351.987823 
	C652.938110,351.854004 651.795044,353.103943 651.977783,356.322418 
	C652.408264,363.905243 652.854065,371.495117 652.959656,379.086761 
	C653.158813,393.398254 653.122559,407.713074 653.056458,422.931610 
	C653.350525,426.641754 653.644531,430.351898 654.000000,434.000000 
	C654.000000,434.000000 653.936401,434.060364 654.276672,434.809570 
	C663.013062,435.238403 671.747192,435.749237 680.488708,435.998596 
	C681.660889,436.032074 682.870789,434.745209 684.007202,434.007324 
	C684.007202,434.007324 684.072205,434.060028 684.858215,433.659943 
M411.226440,434.711731 
	C411.906891,434.756836 412.587341,434.801941 414.164764,434.963989 
	C423.414612,434.963989 432.664490,434.963989 441.986023,434.963989 
	C441.986023,408.354828 441.941803,382.369720 442.042938,356.385162 
	C442.055359,353.196686 441.187012,351.888824 437.824188,351.968475 
	C430.162872,352.149872 422.492706,351.944183 414.829956,352.092438 
	C413.562775,352.116913 412.314911,353.136993 410.273834,354.183594 
	C410.168518,354.834198 409.971619,355.484741 409.971100,356.135406 
	C409.951355,381.125122 409.938568,406.114899 409.986206,431.104492 
	C409.988068,432.088135 410.588867,433.070618 410.947296,434.033569 
	C410.947296,434.033569 410.939850,434.074646 411.226440,434.711731 
M409.987122,335.373962 
	C410.278564,340.009186 412.806030,342.731232 417.362213,342.921967 
	C423.516846,343.179596 429.709656,343.270416 435.847839,342.860474 
	C438.905334,342.656311 442.292175,341.797119 442.295715,337.304993 
	C442.298279,334.030090 443.140472,330.717499 442.851257,327.489563 
	C442.398468,322.436615 440.535004,317.778168 434.582062,317.315186 
	C428.455627,316.838715 422.263611,316.821320 416.127136,317.132263 
	C414.630157,317.208130 412.752869,319.078979 411.890137,320.600616 
	C409.447205,324.909332 408.186401,329.561340 409.987122,335.373962 
z"/>
<path fill="#F98934" opacity="1.000000" stroke="none" 
	d="
M543.012268,434.822388 
	C536.303650,434.889191 529.594971,434.955994 522.109619,434.879059 
	C519.533936,434.511597 517.734924,434.287903 515.935913,434.064209 
	C515.935913,434.064240 516.000000,434.001221 516.039734,433.563751 
	C516.039978,419.190765 516.033020,405.255005 515.926270,391.320007 
	C515.910095,389.204315 515.430603,387.092163 515.165344,384.978394 
	C514.253113,382.979126 513.731567,380.646179 512.359619,379.039490 
	C506.967590,372.724854 502.039215,372.262146 494.307739,377.158661 
	C493.475494,377.578094 493.233124,377.831512 492.990723,378.084930 
	C492.990723,378.084930 492.992584,377.991180 492.837402,378.151550 
	C492.454529,378.567535 492.226868,378.823120 491.999207,379.078735 
	C491.999207,379.078735 492.002258,378.997925 491.835754,379.150818 
	C491.447754,379.562439 491.226257,379.821136 491.004761,380.079834 
	C491.004791,380.079865 491.004425,380.004608 490.835571,380.155457 
	C490.445770,380.564606 490.224762,380.822876 490.003754,381.081177 
	C490.003754,381.081177 489.996429,380.997650 489.818359,381.221405 
	C489.437805,382.031403 489.235291,382.617676 489.032776,383.203918 
	C489.032776,383.203918 489.013214,383.542297 488.767029,383.889771 
	C488.356964,384.543823 488.193054,384.850403 488.029144,385.156952 
	C488.029144,385.156952 487.973572,385.578003 487.713745,386.148926 
	C487.297211,388.693298 487.012054,390.666321 487.004852,392.640320 
	C486.961823,404.423218 486.949860,416.206573 487.004486,427.989410 
	C487.019012,431.121185 486.517548,433.955933 482.688629,433.872375 
	C474.263336,433.688538 465.844543,433.205414 457.355774,432.390656 
	C457.239502,407.059570 457.172974,382.182251 457.178040,357.304932 
	C457.178406,355.507904 457.700409,353.710968 457.979858,351.914001 
	C457.979858,351.914001 457.990356,351.977509 458.430054,352.018951 
	C462.656067,352.070465 466.464569,352.344055 470.223572,352.028412 
	C475.762543,351.563324 480.616028,352.028320 482.839081,358.164520 
	C483.766571,360.128571 484.694092,362.092621 485.696167,364.214600 
	C496.136749,351.264771 509.361542,348.149475 524.766968,350.863770 
	C536.569336,352.943207 543.602051,359.535461 545.815552,371.747070 
	C545.581238,372.577057 545.624939,372.870117 545.801208,373.152283 
	C545.801208,373.152283 545.950500,373.420044 545.901062,374.063934 
	C545.928284,394.488525 546.004944,414.269257 546.081543,434.049957 
	C546.081543,434.049957 546.052429,434.053436 545.735413,433.983185 
	C544.616333,434.216095 543.814331,434.519226 543.012268,434.822388 
z"/>
<path fill="#F98935" opacity="1.000000" stroke="none" 
	d="
M642.234985,414.030090 
	C642.775513,419.811798 643.548401,425.588898 643.664062,431.379089 
	C643.687683,432.562103 641.429626,434.479401 639.907959,434.890320 
	C631.420471,437.182495 622.939880,436.477783 615.200623,432.438934 
	C612.522949,431.041626 610.993774,427.443573 609.029846,424.964203 
	C600.375427,435.748993 584.108337,440.341064 570.383667,434.620789 
	C562.904114,431.503387 556.856201,426.237152 556.047363,417.203522 
	C555.145996,407.136047 556.098938,397.005127 565.927551,391.974274 
	C574.245422,387.716736 583.763306,385.736908 592.843628,383.067169 
	C596.676514,381.940308 600.749390,381.629730 604.593689,380.968658 
	C605.174805,373.934479 600.683105,368.733582 593.262634,369.210297 
	C586.595276,369.638641 580.020264,371.749268 573.453003,373.320496 
	C571.763916,373.724518 570.325500,375.087433 568.653503,375.669891 
	C564.759094,377.026489 563.157898,375.792999 563.025696,371.577240 
	C563.010071,371.078064 563.023315,370.578064 563.021973,370.078430 
	C562.985718,356.779297 564.311951,354.407959 577.695557,352.212921 
	C587.865967,350.544891 598.344849,350.015900 608.664612,350.200134 
	C619.933472,350.401337 632.129822,359.865601 634.960449,369.923615 
	C635.296814,382.312103 635.569763,393.881775 636.097412,405.439789 
	C636.183044,407.314117 637.398315,409.136871 638.091431,410.983459 
	C638.091431,410.983459 638.012756,411.000519 638.145630,411.178284 
	C638.546021,411.570801 638.813416,411.785522 639.080872,412.000275 
	C639.080872,412.000275 639.002441,411.998688 639.144531,412.217834 
	C639.622314,412.638794 639.957947,412.840576 640.293579,413.042389 
	C640.293579,413.042389 640.556152,413.004181 640.888550,413.257324 
	C641.558899,413.683685 641.896973,413.856873 642.234985,414.030090 
M605.994690,405.318115 
	C605.994690,402.110687 605.994690,398.903259 605.994690,394.489319 
	C600.258606,396.630493 595.585266,398.031281 591.226013,400.095276 
	C586.520691,402.323151 584.451904,408.973022 586.937012,412.361725 
	C589.867676,416.358002 594.247620,417.866425 599.293335,415.769501 
	C603.273315,414.115448 606.856140,411.564514 605.994690,405.318115 
z"/>
<path fill="#F98934" opacity="1.000000" stroke="none" 
	d="
M366.018188,353.104523 
	C366.007782,363.560211 365.734161,374.023987 366.056671,384.469391 
	C366.422272,396.310516 366.607788,408.239777 368.319489,419.918518 
	C369.067871,425.024689 373.412903,429.603729 376.419189,434.945404 
	C374.938385,434.945404 372.465179,434.945404 369.219543,434.643127 
	C359.230621,433.883728 350.014191,433.426636 340.797729,432.969543 
	C334.018585,431.199951 331.094940,425.946442 329.040283,419.077179 
	C329.101318,403.841766 329.137146,389.459595 329.342773,374.723816 
	C330.130554,372.050446 330.032135,368.424896 331.485413,367.627502 
	C339.556885,363.198975 341.681122,354.958405 345.301575,347.679749 
	C348.368774,341.513428 351.220032,335.238342 354.097015,328.979279 
	C355.859467,325.144989 357.490295,321.250214 359.490662,317.369446 
	C360.214417,317.329620 360.627777,317.302948 361.411774,317.429565 
	C372.848236,317.468811 383.914032,317.354736 395.398865,317.236328 
	C396.658142,317.180573 397.498413,317.129089 398.338654,317.077637 
	C398.624207,317.065308 398.826660,317.188995 399.146515,317.990112 
	C399.890656,320.424072 400.834259,322.301880 400.904602,324.211884 
	C401.137512,330.535248 401.162262,336.871887 401.062927,343.200226 
	C400.972015,348.995087 399.007721,350.835480 393.058014,350.909973 
	C385.728699,351.001770 378.393524,350.843048 371.070831,351.089142 
	C369.365967,351.146423 367.701355,352.400879 366.018188,353.104523 
z"/>
<path fill="#F98935" opacity="1.000000" stroke="none" 
	d="
M653.184204,422.026489 
	C653.122559,407.713074 653.158813,393.398254 652.959656,379.086761 
	C652.854065,371.495117 652.408264,363.905243 651.977783,356.322418 
	C651.795044,353.103943 652.938110,351.854004 656.262207,351.987823 
	C661.580688,352.201935 666.971069,352.496246 672.226440,351.873627 
	C677.228699,351.281006 678.658447,354.420990 679.779236,357.815826 
	C680.681030,360.547119 680.694153,363.571716 681.108887,366.517944 
	C684.197083,363.046570 687.082214,359.524078 690.261108,356.290344 
	C696.250549,350.197479 710.173401,347.398651 717.734863,351.253601 
	C719.248596,352.025330 720.106201,355.801361 719.840454,358.021454 
	C719.070862,364.451019 717.544861,370.788116 716.375549,377.172455 
	C715.631775,381.233551 713.664917,381.686554 710.046936,380.077545 
	C703.361694,377.104462 696.462646,376.239258 690.211426,381.106079 
	C688.158203,382.704651 686.832092,385.237152 684.817261,388.029022 
	C684.331421,403.830322 684.201843,418.945160 684.072205,434.060028 
	C684.072205,434.060028 684.007202,434.007324 683.566284,433.974792 
	C673.395752,433.981628 663.666077,434.020996 653.936401,434.060364 
	C653.936401,434.060364 654.000000,434.000000 654.025757,433.575836 
	C653.762451,429.443268 653.473328,425.734894 653.184204,422.026489 
z"/>
<path fill="#F98934" opacity="1.000000" stroke="none" 
	d="
M411.058136,353.696960 
	C412.314911,353.136993 413.562775,352.116913 414.829956,352.092438 
	C422.492706,351.944183 430.162872,352.149872 437.824188,351.968475 
	C441.187012,351.888824 442.055359,353.196686 442.042938,356.385162 
	C441.941803,382.369720 441.986023,408.354828 441.986023,434.963989 
	C432.664490,434.963989 423.414612,434.963989 413.469696,434.695953 
	C412.163025,434.310150 411.551453,434.192413 410.939850,434.074646 
	C410.939850,434.074646 410.947296,434.033569 411.049011,433.584839 
	C411.119873,406.656403 411.089020,380.176697 411.058136,353.696960 
z"/>
<path fill="#F5A46A" opacity="1.000000" stroke="none" 
	d="
M398.091705,316.683655 
	C397.498413,317.129089 396.658142,317.180573 394.935608,317.198730 
	C383.049225,317.202393 372.045197,317.239349 361.041138,317.276276 
	C360.627777,317.302948 360.214417,317.329620 359.099487,317.444702 
	C355.461670,318.624664 351.791016,318.965210 349.744324,320.966522 
	C345.666443,324.953949 341.372986,327.785461 335.658295,328.297424 
	C330.895050,328.724152 327.260529,330.906891 325.012451,335.214111 
	C318.600983,329.561096 311.554779,326.553589 302.712524,328.656189 
	C293.623749,330.817383 289.919098,337.265381 287.975159,345.473663 
	C287.597046,347.070374 287.140991,348.648621 286.720886,350.235382 
	C286.302124,350.184723 285.883392,350.134094 285.464630,350.083435 
	C285.285553,349.091003 284.957367,348.099457 284.951202,347.105957 
	C284.905670,339.779938 284.926666,332.453552 284.922302,325.127258 
	C284.917664,317.366699 286.339935,315.913513 294.000977,315.914551 
	C322.307068,315.918396 350.613190,315.906921 378.919220,315.950653 
	C385.227905,315.960419 391.536255,316.171387 398.091705,316.683655 
z"/>
<path fill="#F98935" opacity="1.000000" stroke="none" 
	d="
M409.988037,334.954224 
	C408.186401,329.561340 409.447205,324.909332 411.890137,320.600616 
	C412.752869,319.078979 414.630157,317.208130 416.127136,317.132263 
	C422.263611,316.821320 428.455627,316.838715 434.582062,317.315186 
	C440.535004,317.778168 442.398468,322.436615 442.851257,327.489563 
	C443.140472,330.717499 442.298279,334.030090 442.295715,337.304993 
	C442.292175,341.797119 438.905334,342.656311 435.847839,342.860474 
	C429.709656,343.270416 423.516846,343.179596 417.362213,342.921967 
	C412.806030,342.731232 410.278564,340.009186 409.988037,334.954224 
z"/>
<path fill="#FA944A" opacity="1.000000" stroke="none" 
	d="
M325.007751,335.375305 
	C327.260529,330.906891 330.895050,328.724152 335.658295,328.297424 
	C341.372986,327.785461 345.666443,324.953949 349.744324,320.966522 
	C351.791016,318.965210 355.461670,318.624664 358.789062,317.457825 
	C357.490295,321.250214 355.859467,325.144989 354.097015,328.979279 
	C351.220032,335.238342 348.368774,341.513428 345.301575,347.679749 
	C341.681122,354.958405 339.556885,363.198975 331.485413,367.627502 
	C330.032135,368.424896 330.130554,372.050446 329.298126,374.252472 
	C329.049042,369.714508 329.014374,365.294312 328.979736,360.874115 
	C328.648743,354.589264 328.317719,348.304382 327.961426,341.299622 
	C327.682739,340.043182 327.429382,339.506683 327.176025,338.970184 
	C327.176025,338.970184 327.030151,338.565552 326.859680,338.136475 
	C326.432739,337.469513 326.176300,337.231598 325.919861,336.993713 
	C325.919861,336.993713 326.002716,337.009064 325.887512,336.818787 
	C325.559723,336.362671 325.347107,336.096832 325.134491,335.831024 
	C325.134491,335.831024 325.003021,335.536530 325.007751,335.375305 
z"/>
<path fill="#F5A46A" opacity="1.000000" stroke="none" 
	d="
M457.536804,351.954102 
	C457.700409,353.710968 457.178406,355.507904 457.178040,357.304932 
	C457.172974,382.182251 457.239502,407.059570 457.224670,432.720154 
	C457.056213,433.714569 456.951569,433.925751 456.846924,434.136932 
	C456.549469,433.109955 455.994110,432.083435 455.992279,431.055908 
	C455.947876,405.797211 455.947968,380.538330 456.013580,355.279694 
	C456.016418,354.183594 456.717773,353.089325 457.536804,351.954102 
z"/>
<path fill="#FA944A" opacity="1.000000" stroke="none" 
	d="
M456.873138,434.135559 
	C456.951569,433.925751 457.056213,433.714569 457.291992,433.173889 
	C465.844543,433.205414 474.263336,433.688538 482.688629,433.872375 
	C486.517548,433.955933 487.019012,431.121185 487.004486,427.989410 
	C486.949860,416.206573 486.961823,404.423218 487.004852,392.640320 
	C487.012054,390.666321 487.297211,388.693298 487.635315,386.346252 
	C487.816711,402.172119 487.816711,418.371521 487.816711,434.968597 
	C478.465057,434.968597 469.237396,434.968597 459.311035,434.727051 
	C458.045258,434.351196 457.478210,434.216919 456.911163,434.082611 
	C456.911163,434.082611 456.899323,434.134216 456.873138,434.135559 
z"/>
<path fill="#F5A46A" opacity="1.000000" stroke="none" 
	d="
M410.665985,353.940308 
	C411.089020,380.176697 411.119873,406.656403 411.030670,433.594879 
	C410.588867,433.070618 409.988068,432.088135 409.986206,431.104492 
	C409.938568,406.114899 409.951355,381.125122 409.971100,356.135406 
	C409.971619,355.484741 410.168518,354.834198 410.665985,353.940308 
z"/>
<path fill="#F5A46A" opacity="1.000000" stroke="none" 
	d="
M366.403046,352.917542 
	C367.701355,352.400879 369.365967,351.146423 371.070831,351.089142 
	C378.393524,350.843048 385.728699,351.001770 393.058014,350.909973 
	C399.007721,350.835480 400.972015,348.995087 401.062927,343.200226 
	C401.162262,336.871887 401.137512,330.535248 400.904602,324.211884 
	C400.834259,322.301880 399.890656,320.424072 399.156616,318.177551 
	C399.968475,319.188416 401.787994,320.524292 401.837585,321.922882 
	C402.113556,329.707550 401.967651,337.507446 401.951385,345.302124 
	C401.940582,350.477356 400.502136,351.981079 395.404968,352.003967 
	C387.444763,352.039673 379.483978,351.975616 371.524231,352.046478 
	C369.943542,352.060577 368.366577,352.491730 366.403046,352.917542 
z"/>
<path fill="#F5A46A" opacity="1.000000" stroke="none" 
	d="
M546.476868,433.855042 
	C546.004944,414.269257 545.928284,394.488525 545.884521,374.216309 
	C546.289917,374.552856 546.986877,375.380798 546.987183,376.208984 
	C546.994568,395.359344 546.926392,414.509766 546.476868,433.855042 
z"/>
<path fill="#F5A46A" opacity="1.000000" stroke="none" 
	d="
M328.590210,361.090393 
	C329.014374,365.294312 329.049042,369.714508 329.128357,374.606049 
	C329.137146,389.459595 329.101318,403.841766 329.050873,418.708069 
	C328.685059,418.527252 328.026672,417.862030 328.027283,417.197388 
	C328.044342,398.567139 328.127991,379.936890 328.590210,361.090393 
z"/>
<path fill="#F5A46A" opacity="1.000000" stroke="none" 
	d="
M654.106567,434.434967 
	C663.666077,434.020996 673.395752,433.981628 683.594360,434.006042 
	C682.870789,434.745209 681.660889,436.032074 680.488708,435.998596 
	C671.747192,435.749237 663.013062,435.238403 654.106567,434.434967 
z"/>
<path fill="#F5A46A" opacity="1.000000" stroke="none" 
	d="
M515.097534,385.445984 
	C515.430603,387.092163 515.910095,389.204315 515.926270,391.320007 
	C516.033020,405.255005 516.039978,419.190765 516.007629,433.594055 
	C515.617798,432.739868 515.027954,431.418823 515.023499,430.095795 
	C514.973389,415.368561 515.013794,400.641022 515.097534,385.445984 
z"/>
<path fill="#F5A46A" opacity="1.000000" stroke="none" 
	d="
M638.055542,410.554565 
	C637.398315,409.136871 636.183044,407.314117 636.097412,405.439789 
	C635.569763,393.881775 635.296814,382.312103 634.958008,370.296692 
	C635.662292,372.239136 636.879944,374.618195 636.938721,377.025574 
	C637.161865,386.159424 636.952942,395.303009 637.044983,404.441559 
	C637.064148,406.339355 637.679260,408.231140 638.055542,410.554565 
z"/>
<path fill="#F5A46A" opacity="1.000000" stroke="none" 
	d="
M684.465210,433.859985 
	C684.201843,418.945160 684.331421,403.830322 684.652161,388.346924 
	C684.848267,403.205597 684.853271,418.432770 684.465210,433.859985 
z"/>
<path fill="#F5A46A" opacity="1.000000" stroke="none" 
	d="
M482.918030,357.744415 
	C480.616028,352.028320 475.762543,351.563324 470.223572,352.028412 
	C466.464569,352.344055 462.656067,352.070465 458.398651,352.011780 
	C461.895660,351.631378 465.860260,351.245972 469.833252,350.990448 
	C471.811768,350.863190 473.842010,351.218414 475.785431,350.929230 
	C480.862152,350.173767 482.897797,352.595337 482.918030,357.744415 
z"/>
<path fill="#F5A46A" opacity="1.000000" stroke="none" 
	d="
M340.982147,433.354675 
	C350.014191,433.426636 359.230621,433.883728 368.804321,434.583710 
	C360.807678,434.911804 352.453644,435.042023 344.100006,435.021729 
	C343.121155,435.019379 342.144348,434.187317 340.982147,433.354675 
z"/>
<path fill="#F5A46A" opacity="1.000000" stroke="none" 
	d="
M653.120361,422.479065 
	C653.473328,425.734894 653.762451,429.443268 653.995117,433.606873 
	C653.644531,430.351898 653.350525,426.641754 653.120361,422.479065 
z"/>
<path fill="#F5A46A" opacity="1.000000" stroke="none" 
	d="
M516.068665,434.399414 
	C517.734924,434.287903 519.533936,434.511597 521.643982,434.956970 
	C520.037170,435.030640 518.119263,434.882629 516.068665,434.399414 
z"/>
<path fill="#F5A46A" opacity="1.000000" stroke="none" 
	d="
M543.362183,434.899170 
	C543.814331,434.519226 544.616333,434.216095 545.735962,433.997803 
	C545.273071,434.380432 544.492554,434.678192 543.362183,434.899170 
z"/>
<path fill="#FA944A" opacity="1.000000" stroke="none" 
	d="
M489.336731,383.057648 
	C489.235291,382.617676 489.437805,382.031403 489.860138,381.217651 
	C489.933533,381.630554 489.787109,382.270966 489.336731,383.057648 
z"/>
<path fill="#F5A46A" opacity="1.000000" stroke="none" 
	d="
M457.021149,434.404663 
	C457.478210,434.216919 458.045258,434.351196 458.851654,434.665955 
	C458.437714,434.806549 457.784424,434.766632 457.021149,434.404663 
z"/>
<path fill="#F5A46A" opacity="1.000000" stroke="none" 
	d="
M411.083130,434.393188 
	C411.551453,434.192413 412.163025,434.310150 413.021210,434.637451 
	C412.587341,434.801941 411.906891,434.756836 411.083130,434.393188 
z"/>
<path fill="#F5A46A" opacity="1.000000" stroke="none" 
	d="
M327.098694,339.304016 
	C327.429382,339.506683 327.682739,340.043182 327.972076,340.878387 
	C327.679169,340.664032 327.350281,340.150970 327.098694,339.304016 
z"/>
<path fill="#F5A46A" opacity="1.000000" stroke="none" 
	d="
M639.004028,411.732544 
	C638.813416,411.785522 638.546021,411.570801 638.137268,411.138947 
	C638.306396,411.102814 638.616821,411.283813 639.004028,411.732544 
z"/>
<path fill="#F5A46A" opacity="1.000000" stroke="none" 
	d="
M545.856079,372.862610 
	C545.624939,372.870117 545.581238,372.577057 545.734253,372.133606 
	C545.835938,372.187042 545.873413,372.379974 545.856079,372.862610 
z"/>
<path fill="#F5A46A" opacity="1.000000" stroke="none" 
	d="
M642.093201,413.737976 
	C641.896973,413.856873 641.558899,413.683685 641.004150,413.322449 
	C641.175354,413.238220 641.563416,413.342041 642.093201,413.737976 
z"/>
<path fill="#F5A46A" opacity="1.000000" stroke="none" 
	d="
M640.156677,412.769714 
	C639.957947,412.840576 639.622314,412.638794 639.145508,412.178650 
	C639.342834,412.112549 639.681274,412.304810 640.156677,412.769714 
z"/>
<path fill="#FA944A" opacity="1.000000" stroke="none" 
	d="
M492.271454,379.007385 
	C492.226868,378.823120 492.454529,378.567535 492.884277,378.152405 
	C492.905426,378.307251 492.724579,378.621674 492.271454,379.007385 
z"/>
<path fill="#F5A46A" opacity="1.000000" stroke="none" 
	d="
M325.991211,337.268219 
	C326.176300,337.231598 326.432739,337.469513 326.842407,337.922119 
	C326.684601,337.938782 326.373566,337.740753 325.991211,337.268219 
z"/>
<path fill="#F5A46A" opacity="1.000000" stroke="none" 
	d="
M325.086884,336.132294 
	C325.347107,336.096832 325.559723,336.362671 325.879730,336.860168 
	C325.671173,336.872437 325.355225,336.653015 325.086884,336.132294 
z"/>
<path fill="#FA944A" opacity="1.000000" stroke="none" 
	d="
M493.264374,378.012909 
	C493.233124,377.831512 493.475494,377.578094 493.932739,377.172180 
	C493.944427,377.326782 493.741211,377.633820 493.264374,378.012909 
z"/>
<path fill="#FA944A" opacity="1.000000" stroke="none" 
	d="
M488.313599,385.049316 
	C488.193054,384.850403 488.356964,384.543823 488.701965,384.046265 
	C488.788055,384.217407 488.693054,384.579529 488.313599,385.049316 
z"/>
<path fill="#FA944A" opacity="1.000000" stroke="none" 
	d="
M490.278503,381.017029 
	C490.224762,380.822876 490.445770,380.564606 490.873230,380.155334 
	C490.904205,380.320557 490.728699,380.636749 490.278503,381.017029 
z"/>
<path fill="#FA944A" opacity="1.000000" stroke="none" 
	d="
M491.278656,380.013855 
	C491.226257,379.821136 491.447754,379.562439 491.876160,379.152374 
	C491.906219,379.316650 491.729370,379.632263 491.278656,380.013855 
z"/>
<path fill="#000000" opacity="1.000000" stroke="none" 
	d="
M605.994141,405.769592 
	C606.856140,411.564514 603.273315,414.115448 599.293335,415.769501 
	C594.247620,417.866425 589.867676,416.358002 586.937012,412.361725 
	C584.451904,408.973022 586.520691,402.323151 591.226013,400.095276 
	C595.585266,398.031281 600.258606,396.630493 605.994690,394.489319 
	C605.994690,398.903259 605.994690,402.110687 605.994141,405.769592 
z"/>
<path fill="#FA944A" opacity="1.000000" stroke="none" 
	d="
M361.411774,317.429565 
	C372.045197,317.239349 383.049225,317.202393 394.516571,317.203033 
	C383.914032,317.354736 372.848236,317.468811 361.411774,317.429565 
z"/>
</svg>